<svg width="800" height="600" xmlns="http://www.w3.org/2000/svg">
  <defs>
    <filter id="shadow" x="-5%" y="-5%" width="110%" height="110%">
      <feDropShadow dx="0" dy="2" stdDeviation="4" flood-opacity="0.1"/>
    </filter>
    <style>
      .title { font-family: 'Roboto', Arial, sans-serif; font-weight: bold; }
      .text { font-family: 'Roboto', Arial, sans-serif; }
      .small { font-family: 'Roboto', Arial, sans-serif; font-size: 12px; }
    </style>
  </defs>

  <!-- Hintergrund -->
  <rect width="800" height="600" fill="#f5f5f5"/>

  <!-- Header (Dunkelgrau) -->
  <rect width="800" height="56" fill="#424242"/>

  <!-- Breadcrumb im Header -->
  <text x="20" y="35" class="text" font-size="14" fill="#fff">Formulare › James Cook Quiz › Ergebnis</text>

  <!-- ELIZA Logo oben rechts -->
  <g transform="translate(690, 8) scale(0.5)">
    <path fill="#42a5f6" d="M 4.097656 38.84375 C 3.328125 25.796875 13.257812 14.59375 26.277344 13.824219 C 32.527344 13.457031 38.667969 15.589844 43.347656 19.757812 C 48.027344 23.925781 50.867188 29.789062 51.234375 36.054688 C 52.003906 49.101562 42.074219 60.300781 29.058594 61.070312 C 16.039062 61.839844 4.867188 51.886719 4.097656 38.839844 Z"/>
    <path fill="#fff" d="M 20.761719 28.636719 L 18.339844 28.34375 L 18.214844 26.195312 L 34.992188 25.203125 L 35.707031 30.617188 L 33.289062 30.761719 L 32.027344 27.714844 L 25.972656 27.773438 L 26.445312 35.757812 L 30.175781 35.453125 L 30.578125 32.898438 L 32.699219 32.773438 L 33.152344 40.480469 L 31.03125 40.605469 L 30.359375 37.96875 L 26.582031 38.097656 L 27.074219 46.453125 L 33.769531 45.636719 L 35.402344 41.550781 L 38.046875 42.140625 L 37.65625 47.960938 L 19.59375 49.027344 L 19.472656 47 L 21.816406 46.546875 Z"/>
    <path fill="#ff9800" d="M 40.730469 39.570312 C 42.679688 26.644531 54.714844 17.75 67.609375 19.703125 C 73.804688 20.644531 79.371094 24.007812 83.085938 29.0625 C 86.804688 34.113281 88.367188 40.441406 87.429688 46.648438 C 85.480469 59.574219 73.445312 68.46875 60.546875 66.511719 C 47.652344 64.558594 38.777344 52.496094 40.730469 39.570312 Z"/>
    <path fill="#fff" d="M 59.179688 33.058594 L 56.964844 32.285156 L 57.285156 30.15625 L 67.644531 31.726562 L 67.320312 33.851562 L 64.363281 33.84375 L 61.695312 51.523438 L 67.457031 52.09375 L 70.335938 46.363281 L 73.140625 47.164062 L 71.003906 55.367188 L 53.816406 52.761719 L 54.117188 50.753906 L 56.503906 50.796875 Z"/>
    <path fill="#ea4545" d="M 73.121094 37.171875 C 70.8125 24.3125 79.335938 12.011719 92.167969 9.695312 C 98.328125 8.582031 104.675781 9.96875 109.820312 13.550781 C 114.960938 17.128906 118.472656 22.609375 119.582031 28.785156 C 121.890625 41.644531 113.363281 53.945312 100.535156 56.261719 C 87.707031 58.578125 75.433594 50.03125 73.121094 37.171875 Z"/>
    <path fill="#fff" d="M 92.105469 24.390625 L 89.546875 24.414062 L 89.167969 22.296875 L 99.359375 20.457031 L 99.738281 22.574219 L 97.277344 23.457031 L 100.449219 41.117188 L 103.050781 41 L 103.402344 42.964844 L 93.25 44.800781 L 92.890625 42.800781 L 95.273438 42.027344 Z"/>
    <path fill="#7b1fa2" d="M 106.398438 39.878906 C 107.492188 26.851562 118.917969 17.183594 131.914062 18.28125 C 138.152344 18.808594 143.929688 21.796875 147.972656 26.59375 C 152.011719 31.390625 153.988281 37.597656 153.460938 43.855469 C 152.367188 56.878906 140.941406 66.550781 127.945312 65.453125 C 114.949219 64.355469 105.300781 52.90625 106.398438 39.878906 Z"/>
    <path fill="#fff" d="M 134.289062 32.285156 L 126.972656 32.125 L 124.894531 36.1875 L 122.296875 35.59375 L 123.585938 29.4375 L 139.496094 30.78125 L 140.109375 32.65625 L 127.945312 48.742188 L 125.636719 50.550781 L 134.40625 50.652344 L 136.585938 46.066406 L 139.167969 46.851562 L 137.921875 53.664062 L 120.71875 52.210938 L 119.851562 50.351562 L 132.273438 34.214844 Z"/>
    <path fill="#4caf50" d="M 143.242188 38.273438 C 141.617188 25.304688 150.789062 13.476562 163.726562 11.851562 C 169.9375 11.070312 176.207031 12.792969 181.148438 16.644531 C 186.09375 20.492188 189.308594 26.15625 190.085938 32.382812 C 191.710938 45.347656 182.539062 57.175781 169.601562 58.804688 C 156.667969 60.429688 144.863281 51.238281 143.242188 38.273438 Z"/>
    <path fill="#fff" d="M 163.472656 23.75 L 168.957031 23.058594 L 178.339844 42.664062 L 180.058594 42.761719 L 180.3125 44.78125 L 170.703125 45.988281 L 170.453125 43.972656 L 172.578125 43.390625 L 171.085938 39.855469 L 163.800781 40.773438 L 163.226562 44.601562 L 165.640625 44.578125 L 165.894531 46.59375 L 157.789062 47.613281 L 157.5 45.601562 L 159.230469 45.042969 Z M 166.386719 28.789062 L 165.664062 26.695312 L 165.449219 28.929688 L 164.113281 38.34375 L 170.148438 37.585938 Z"/>
  </g>

  <!-- Seitentitel -->
  <text x="20" y="95" class="title" font-size="22" fill="#424242">Ergebnis: James Cook Quiz</text>

  <!-- Ergebnis Cards -->
  <!-- Bestanden Card (Grün) -->
  <rect x="20" y="115" width="370" height="130" rx="8" fill="#4CAF50" filter="url(#shadow)"/>
  <text x="40" y="150" class="title" font-size="18" fill="#fff">✓ Bestanden</text>
  <text x="40" y="200" class="title" font-size="36" fill="#fff">80 / 100</text>
  <text x="40" y="225" class="text" font-size="14" fill="rgba(255,255,255,0.9)">80% (Bestehensgrenze: 60%)</text>

  <!-- Details Card (Blau) -->
  <rect x="410" y="115" width="370" height="130" rx="8" fill="#2196F3" filter="url(#shadow)"/>
  <text x="430" y="150" class="title" font-size="18" fill="#fff">Details</text>
  <text x="430" y="185" class="small" fill="rgba(255,255,255,0.9)">Abgeschlossen am:</text>
  <text x="430" y="205" class="text" font-size="14" fill="#fff">15.01.2025 14:30</text>
  <text x="430" y="230" class="small" fill="rgba(255,255,255,0.9)">Anzahl Fragen: 8</text>

  <!-- Antworten Card -->
  <rect x="20" y="260" width="760" height="320" rx="8" fill="#fff" filter="url(#shadow)"/>
  <text x="40" y="295" class="title" font-size="16" fill="#424242">Deine Antworten</text>
  <line x1="40" y1="310" x2="760" y2="310" stroke="#eee" stroke-width="1"/>

  <!-- Frage 1 - Richtig -->
  <text x="40" y="340" class="text" font-size="14" fill="#424242">1. In welchem Jahr wurde James Cook geboren?</text>
  <circle cx="730" cy="335" r="12" fill="#4CAF50"/>
  <text x="724" y="340" class="text" font-size="14" fill="#fff">✓</text>
  <text x="750" y="340" class="small" fill="#9E9E9E">10P</text>
  <text x="55" y="360" class="small" fill="#4CAF50">Deine Antwort: 1728</text>

  <!-- Frage 2 - Richtig -->
  <text x="40" y="395" class="text" font-size="14" fill="#424242">2. Welches Schiff befehligte Cook auf seiner ersten Reise?</text>
  <circle cx="730" cy="390" r="12" fill="#4CAF50"/>
  <text x="724" y="395" class="text" font-size="14" fill="#fff">✓</text>
  <text x="750" y="395" class="small" fill="#9E9E9E">10P</text>
  <text x="55" y="415" class="small" fill="#4CAF50">Deine Antwort: HMS Endeavour</text>

  <!-- Frage 3 - Falsch -->
  <text x="40" y="450" class="text" font-size="14" fill="#424242">3. Welche Regionen erforschte Cook? (Multiple Choice)</text>
  <circle cx="730" cy="445" r="12" fill="#F44336"/>
  <text x="724" y="450" class="text" font-size="14" fill="#fff">✗</text>
  <text x="750" y="450" class="small" fill="#9E9E9E">0P</text>
  <text x="55" y="470" class="small" fill="#F44336">Deine Antwort: Pazifik, Australien (unvollständig)</text>

  <!-- Richtige Antwort Hinweis -->
  <rect x="55" y="480" width="700" height="30" rx="4" fill="#E8F5E9"/>
  <text x="70" y="500" class="small" fill="#2E7D32">💡 Richtige Antwort(en): Pazifik, Ostküste Australiens, Neuseeland, Antarktis-Region</text>

  <!-- Frage 4 - Richtig -->
  <text x="40" y="540" class="text" font-size="14" fill="#424242">4. Ordne die Ereignisse chronologisch (Ranking)</text>
  <circle cx="730" cy="535" r="12" fill="#4CAF50"/>
  <text x="724" y="540" class="text" font-size="14" fill="#fff">✓</text>
  <text x="750" y="540" class="small" fill="#9E9E9E">20P</text>
  <text x="55" y="560" class="small" fill="#4CAF50">Deine Reihenfolge: Korrekt</text>
</svg>
